<?xml version="1.0" encoding="UTF-8"?>
<svg id="a" data-name="Layer 1" xmlns="http://www.w3.org/2000/svg" viewBox="0 0 750.35 205.52">
  <polyline points="212.74 17.36 25.31 73.55 25.31 75.58 25.31 178.73 25.31 180.76 201.93 186.67" style="fill: none; stroke: #fff; stroke-miterlimit: 10; stroke-width: 6px;"/>
  <ellipse cx="62.88" cy="136.88" rx="15.46" ry="18.74" transform="translate(-80.85 181.94) rotate(-82.74)" style="fill: #fff; stroke-width: 0px;"/>
  <path d="m87.89,164.72v-45.63,45.63Z" style="fill: none; stroke: #fff; stroke-miterlimit: 10; stroke-width: 5px;"/>
  <path d="m50.3,163.27h39.9-39.9Z" style="fill: none; stroke: #fff; stroke-miterlimit: 10; stroke-width: 5px;"/>
  <polygon points="97.18 166.39 95.59 120.58 199.63 146.12 199.92 176.47 97.18 166.39" style="fill: #fff; stroke-width: 0px;"/>
  <polygon points="97.18 166.39 95.59 120.58 199.63 146.12 199.92 176.47 97.18 166.39" style="fill: #fff; stroke-width: 0px;"/>
  <line x1=".86" y1="80.92" x2="59.62" y2="63.24" style="fill: none; stroke: #fff; stroke-miterlimit: 10; stroke-width: 6px;"/>
  <g>
    <text transform="translate(255.08 62.69)" style="fill: #fff; font-family: Roboto-Black, Roboto; font-size: 73.29px; font-weight: 800;"><tspan x="0" y="0">AARA</tspan><tspan x="0" y="80.63">H</tspan><tspan x="51.49" y="80.63" style="letter-spacing: -.04em;">O</tspan><tspan x="99.05" y="80.63" style="letter-spacing: 0em;">TELS. COM</tspan></text>
    <text transform="translate(255.08 194.9)" style="fill: #fff; font-family: Roboto-Bold, Roboto; font-size: 39.2px; font-weight: 700;"><tspan x="0" y="0">Budget Rooms &amp; Cottages</tspan></text>
  </g>
</svg>